%TF.GenerationSoftware,KiCad,Pcbnew,(5.1.7)-1*%
%TF.CreationDate,2020-11-14T13:05:27+01:00*%
%TF.ProjectId,bulb-current-sensor,62756c62-2d63-4757-9272-656e742d7365,rev?*%
%TF.SameCoordinates,Original*%
%TF.FileFunction,Copper,L2,Bot*%
%TF.FilePolarity,Positive*%
%FSLAX46Y46*%
G04 Gerber Fmt 4.6, Leading zero omitted, Abs format (unit mm)*
G04 Created by KiCad (PCBNEW (5.1.7)-1) date 2020-11-14 13:05:27*
%MOMM*%
%LPD*%
G01*
G04 APERTURE LIST*
%TA.AperFunction,ComponentPad*%
%ADD10C,2.000000*%
%TD*%
%TA.AperFunction,ComponentPad*%
%ADD11R,2.000000X2.000000*%
%TD*%
%TA.AperFunction,ComponentPad*%
%ADD12C,4.000000*%
%TD*%
%TA.AperFunction,ComponentPad*%
%ADD13C,3.000000*%
%TD*%
%TA.AperFunction,ComponentPad*%
%ADD14R,2.999999X2.999999*%
%TD*%
%TA.AperFunction,ComponentPad*%
%ADD15R,1.200000X1.200000*%
%TD*%
%TA.AperFunction,ComponentPad*%
%ADD16C,1.200000*%
%TD*%
%TA.AperFunction,ComponentPad*%
%ADD17O,2.200000X2.200000*%
%TD*%
%TA.AperFunction,ComponentPad*%
%ADD18R,2.200000X2.200000*%
%TD*%
%TA.AperFunction,ComponentPad*%
%ADD19R,3.000000X3.000000*%
%TD*%
%TA.AperFunction,ComponentPad*%
%ADD20R,1.700000X1.700000*%
%TD*%
%TA.AperFunction,ComponentPad*%
%ADD21O,1.700000X1.700000*%
%TD*%
%TA.AperFunction,ComponentPad*%
%ADD22C,1.600000*%
%TD*%
%TA.AperFunction,ComponentPad*%
%ADD23O,1.600000X1.600000*%
%TD*%
%TA.AperFunction,ComponentPad*%
%ADD24R,1.600000X1.600000*%
%TD*%
%TA.AperFunction,ComponentPad*%
%ADD25R,1.905000X2.000000*%
%TD*%
%TA.AperFunction,ComponentPad*%
%ADD26O,1.905000X2.000000*%
%TD*%
%TA.AperFunction,Conductor*%
%ADD27C,1.016000*%
%TD*%
%TA.AperFunction,Conductor*%
%ADD28C,0.508000*%
%TD*%
%TA.AperFunction,Conductor*%
%ADD29C,2.032000*%
%TD*%
G04 APERTURE END LIST*
D10*
%TO.P,REF\u002A\u002A,6*%
%TO.N,N/C*%
X86140000Y-84900000D03*
%TO.P,REF\u002A\u002A,5*%
X88680000Y-84900000D03*
%TO.P,REF\u002A\u002A,4*%
X91220000Y-84900000D03*
%TO.P,REF\u002A\u002A,3*%
X93760000Y-84900000D03*
%TO.P,REF\u002A\u002A,2*%
X96300000Y-84900000D03*
D11*
%TO.P,REF\u002A\u002A,1*%
X98840000Y-84900000D03*
D12*
%TO.P,REF\u002A\u002A,10*%
X44840000Y-85900000D03*
X44840000Y-41900000D03*
X113840000Y-41900000D03*
X113840000Y-85900000D03*
%TD*%
D10*
%TO.P,hole1,1*%
%TO.N,N/C*%
X46990000Y-81280000D03*
%TD*%
%TO.P,hole1,1*%
%TO.N,N/C*%
X113030000Y-81280000D03*
%TD*%
%TO.P,hole1,1*%
%TO.N,N/C*%
X113030000Y-35560000D03*
%TD*%
%TO.P,REF\u002A\u002A,1*%
%TO.N,/esp_rx*%
X55880000Y-94615000D03*
%TD*%
%TO.P,REF\u002A\u002A,1*%
%TO.N,/esp_rx*%
X48260000Y-94615000D03*
%TD*%
%TO.P,REF\u002A\u002A,1*%
%TO.N,/dc_33*%
X73660000Y-92075000D03*
%TD*%
%TO.P,REF\u002A\u002A,1*%
%TO.N,/dc_33*%
X80010000Y-92075000D03*
%TD*%
%TO.P,REF\u002A\u002A,1*%
%TO.N,/dc_33*%
X35560000Y-85090000D03*
%TD*%
%TO.P,REF\u002A\u002A,1*%
%TO.N,/dc_33*%
X30480000Y-85090000D03*
%TD*%
%TO.P,REF\u002A\u002A,1*%
%TO.N,/ac_in4*%
X100330000Y-41910000D03*
%TD*%
%TO.P,REF\u002A\u002A,1*%
%TO.N,/ac_in4*%
X100330000Y-33020000D03*
%TD*%
D13*
%TO.P,J9,2*%
%TO.N,/ac_live*%
X114300000Y-24130000D03*
D14*
%TO.P,J9,1*%
%TO.N,/ac_neutral*%
X109220000Y-24130000D03*
%TD*%
D10*
%TO.P,REF\u002A\u002A,1*%
%TO.N,/as_out4*%
X97790000Y-44450000D03*
%TD*%
%TO.P,REF\u002A\u002A,1*%
%TO.N,/as_out4*%
X97790000Y-30480000D03*
%TD*%
%TO.P,REF\u002A\u002A,1*%
%TO.N,/as_out3*%
X80010000Y-43180000D03*
%TD*%
%TO.P,REF\u002A\u002A,1*%
%TO.N,/as_out3*%
X80010000Y-30480000D03*
%TD*%
%TO.P,REF\u002A\u002A,1*%
%TO.N,/as_out2*%
X59690000Y-43180000D03*
%TD*%
%TO.P,REF\u002A\u002A,1*%
%TO.N,/as_out2*%
X59690000Y-30480000D03*
%TD*%
%TO.P,REF\u002A\u002A,1*%
%TO.N,/as_out1*%
X40640000Y-43180000D03*
%TD*%
%TO.P,REF\u002A\u002A,1*%
%TO.N,/as_out1*%
X40640000Y-30480000D03*
%TD*%
D15*
%TO.P,C1,1*%
%TO.N,/sense1*%
X50800000Y-76200000D03*
D16*
%TO.P,C1,2*%
%TO.N,/gnd*%
X49300000Y-76200000D03*
%TD*%
D15*
%TO.P,C2,1*%
%TO.N,/sense2*%
X72390000Y-76200000D03*
D16*
%TO.P,C2,2*%
%TO.N,/gnd*%
X70890000Y-76200000D03*
%TD*%
%TO.P,C3,2*%
%TO.N,/gnd*%
X82780000Y-76200000D03*
D15*
%TO.P,C3,1*%
%TO.N,/sense3*%
X81280000Y-76200000D03*
%TD*%
D16*
%TO.P,C4,2*%
%TO.N,/gnd*%
X100100000Y-76200000D03*
D15*
%TO.P,C4,1*%
%TO.N,/sense4*%
X101600000Y-76200000D03*
%TD*%
D17*
%TO.P,D1,2*%
%TO.N,/ac_in1*%
X48260000Y-30480000D03*
D18*
%TO.P,D1,1*%
%TO.N,Net-(D1-Pad1)*%
X48260000Y-40640000D03*
%TD*%
%TO.P,D2,1*%
%TO.N,Net-(D2-Pad1)*%
X48260000Y-53340000D03*
D17*
%TO.P,D2,2*%
%TO.N,Net-(D1-Pad1)*%
X48260000Y-43180000D03*
%TD*%
D18*
%TO.P,D3,1*%
%TO.N,/as_out1*%
X48260000Y-66040000D03*
D17*
%TO.P,D3,2*%
%TO.N,Net-(D2-Pad1)*%
X48260000Y-55880000D03*
%TD*%
D18*
%TO.P,D4,1*%
%TO.N,Net-(D4-Pad1)*%
X67310000Y-40640000D03*
D17*
%TO.P,D4,2*%
%TO.N,/ac_in2*%
X67310000Y-30480000D03*
%TD*%
D18*
%TO.P,D5,1*%
%TO.N,Net-(D5-Pad1)*%
X67310000Y-53340000D03*
D17*
%TO.P,D5,2*%
%TO.N,Net-(D4-Pad1)*%
X67310000Y-43180000D03*
%TD*%
%TO.P,D6,2*%
%TO.N,Net-(D5-Pad1)*%
X67310000Y-55880000D03*
D18*
%TO.P,D6,1*%
%TO.N,/as_out2*%
X67310000Y-66040000D03*
%TD*%
D17*
%TO.P,D7,2*%
%TO.N,/ac_in3*%
X87630000Y-30480000D03*
D18*
%TO.P,D7,1*%
%TO.N,Net-(D7-Pad1)*%
X87630000Y-40640000D03*
%TD*%
%TO.P,D8,1*%
%TO.N,Net-(D8-Pad1)*%
X87630000Y-53340000D03*
D17*
%TO.P,D8,2*%
%TO.N,Net-(D7-Pad1)*%
X87630000Y-43180000D03*
%TD*%
%TO.P,D9,2*%
%TO.N,Net-(D8-Pad1)*%
X87630000Y-55880000D03*
D18*
%TO.P,D9,1*%
%TO.N,/as_out3*%
X87630000Y-66040000D03*
%TD*%
%TO.P,D10,1*%
%TO.N,Net-(D10-Pad1)*%
X107950000Y-40640000D03*
D17*
%TO.P,D10,2*%
%TO.N,/ac_in4*%
X107950000Y-30480000D03*
%TD*%
%TO.P,D11,2*%
%TO.N,Net-(D10-Pad1)*%
X107950000Y-43180000D03*
D18*
%TO.P,D11,1*%
%TO.N,Net-(D11-Pad1)*%
X107950000Y-53340000D03*
%TD*%
%TO.P,D12,1*%
%TO.N,/as_out4*%
X107950000Y-66040000D03*
D17*
%TO.P,D12,2*%
%TO.N,Net-(D11-Pad1)*%
X107950000Y-55880000D03*
%TD*%
%TO.P,D13,2*%
%TO.N,Net-(D13-Pad2)*%
X44450000Y-40640000D03*
D18*
%TO.P,D13,1*%
%TO.N,/ac_in1*%
X44450000Y-30480000D03*
%TD*%
%TO.P,D14,1*%
%TO.N,Net-(D13-Pad2)*%
X44450000Y-43180000D03*
D17*
%TO.P,D14,2*%
%TO.N,Net-(D14-Pad2)*%
X44450000Y-53340000D03*
%TD*%
%TO.P,D15,2*%
%TO.N,/as_out1*%
X44450000Y-66040000D03*
D18*
%TO.P,D15,1*%
%TO.N,Net-(D14-Pad2)*%
X44450000Y-55880000D03*
%TD*%
%TO.P,D16,1*%
%TO.N,/ac_in2*%
X63500000Y-30480000D03*
D17*
%TO.P,D16,2*%
%TO.N,Net-(D16-Pad2)*%
X63500000Y-40640000D03*
%TD*%
%TO.P,D17,2*%
%TO.N,Net-(D17-Pad2)*%
X63500000Y-53340000D03*
D18*
%TO.P,D17,1*%
%TO.N,Net-(D16-Pad2)*%
X63500000Y-43180000D03*
%TD*%
%TO.P,D18,1*%
%TO.N,Net-(D17-Pad2)*%
X63500000Y-55880000D03*
D17*
%TO.P,D18,2*%
%TO.N,/as_out2*%
X63500000Y-66040000D03*
%TD*%
D18*
%TO.P,D19,1*%
%TO.N,/ac_in3*%
X83820000Y-30480000D03*
D17*
%TO.P,D19,2*%
%TO.N,Net-(D19-Pad2)*%
X83820000Y-40640000D03*
%TD*%
%TO.P,D20,2*%
%TO.N,Net-(D20-Pad2)*%
X83820000Y-53340000D03*
D18*
%TO.P,D20,1*%
%TO.N,Net-(D19-Pad2)*%
X83820000Y-43180000D03*
%TD*%
D17*
%TO.P,D21,2*%
%TO.N,/as_out3*%
X83820000Y-66040000D03*
D18*
%TO.P,D21,1*%
%TO.N,Net-(D20-Pad2)*%
X83820000Y-55880000D03*
%TD*%
D17*
%TO.P,D22,2*%
%TO.N,Net-(D22-Pad2)*%
X104140000Y-40640000D03*
D18*
%TO.P,D22,1*%
%TO.N,/ac_in4*%
X104140000Y-30480000D03*
%TD*%
%TO.P,D23,1*%
%TO.N,Net-(D22-Pad2)*%
X104140000Y-43180000D03*
D17*
%TO.P,D23,2*%
%TO.N,Net-(D23-Pad2)*%
X104140000Y-53340000D03*
%TD*%
%TO.P,D24,2*%
%TO.N,/as_out4*%
X104140000Y-66040000D03*
D18*
%TO.P,D24,1*%
%TO.N,Net-(D23-Pad2)*%
X104140000Y-55880000D03*
%TD*%
D19*
%TO.P,J1,1*%
%TO.N,/ac_neutral*%
X25400000Y-24130000D03*
D13*
%TO.P,J1,2*%
%TO.N,/ac_live*%
X30480000Y-24130000D03*
%TD*%
%TO.P,J2,2*%
%TO.N,/ac_in1*%
X43180000Y-24130000D03*
D19*
%TO.P,J2,1*%
%TO.N,/as_out1*%
X38100000Y-24130000D03*
%TD*%
%TO.P,J3,1*%
%TO.N,/ac_neutral*%
X48260000Y-24130000D03*
D13*
%TO.P,J3,2*%
%TO.N,/ac_live*%
X53340000Y-24130000D03*
%TD*%
D19*
%TO.P,J4,1*%
%TO.N,/as_out2*%
X58420000Y-24130000D03*
D13*
%TO.P,J4,2*%
%TO.N,/ac_in2*%
X63500000Y-24130000D03*
%TD*%
%TO.P,J5,2*%
%TO.N,/ac_live*%
X73660000Y-24130000D03*
D19*
%TO.P,J5,1*%
%TO.N,/ac_neutral*%
X68580000Y-24130000D03*
%TD*%
D13*
%TO.P,J6,2*%
%TO.N,/ac_in3*%
X83820000Y-24130000D03*
D19*
%TO.P,J6,1*%
%TO.N,/as_out3*%
X78740000Y-24130000D03*
%TD*%
%TO.P,J7,1*%
%TO.N,/ac_neutral*%
X88900000Y-24130000D03*
D13*
%TO.P,J7,2*%
%TO.N,/ac_live*%
X93980000Y-24130000D03*
%TD*%
D19*
%TO.P,J8,1*%
%TO.N,/as_out4*%
X99060000Y-24130000D03*
D13*
%TO.P,J8,2*%
%TO.N,/ac_in4*%
X104140000Y-24130000D03*
%TD*%
D20*
%TO.P,J16,1*%
%TO.N,Net-(J16-Pad1)*%
X80010000Y-113030000D03*
D21*
%TO.P,J16,2*%
%TO.N,Net-(J16-Pad2)*%
X82550000Y-113030000D03*
%TO.P,J16,3*%
%TO.N,Net-(J16-Pad3)*%
X85090000Y-113030000D03*
%TO.P,J16,4*%
%TO.N,Net-(J16-Pad4)*%
X87630000Y-113030000D03*
%TO.P,J16,5*%
%TO.N,Net-(J16-Pad5)*%
X90170000Y-113030000D03*
%TO.P,J16,6*%
%TO.N,Net-(J16-Pad6)*%
X92710000Y-113030000D03*
%TO.P,J16,7*%
%TO.N,Net-(J16-Pad7)*%
X95250000Y-113030000D03*
%TO.P,J16,8*%
%TO.N,Net-(J16-Pad8)*%
X97790000Y-113030000D03*
%TO.P,J16,9*%
%TO.N,/dc_33*%
X100330000Y-113030000D03*
%TO.P,J16,10*%
%TO.N,Net-(J16-Pad10)*%
X102870000Y-113030000D03*
%TO.P,J16,11*%
%TO.N,/gnd*%
X105410000Y-113030000D03*
%TO.P,J16,12*%
%TO.N,Net-(J16-Pad12)*%
X107950000Y-113030000D03*
%TD*%
D22*
%TO.P,R1,1*%
%TO.N,/ac_in1*%
X52070000Y-30480000D03*
D23*
%TO.P,R1,2*%
%TO.N,Net-(R1-Pad2)*%
X52070000Y-40640000D03*
%TD*%
%TO.P,R2,2*%
%TO.N,Net-(R2-Pad2)*%
X71120000Y-40640000D03*
D22*
%TO.P,R2,1*%
%TO.N,/ac_in2*%
X71120000Y-30480000D03*
%TD*%
%TO.P,R3,1*%
%TO.N,/ac_in3*%
X91440000Y-30480000D03*
D23*
%TO.P,R3,2*%
%TO.N,Net-(R3-Pad2)*%
X91440000Y-40640000D03*
%TD*%
D22*
%TO.P,R4,1*%
%TO.N,/ac_in4*%
X111760000Y-48260000D03*
D23*
%TO.P,R4,2*%
%TO.N,Net-(R4-Pad2)*%
X111760000Y-58420000D03*
%TD*%
%TO.P,R5,2*%
%TO.N,Net-(R5-Pad2)*%
X60960000Y-85090000D03*
D22*
%TO.P,R5,1*%
%TO.N,/dc_33*%
X50800000Y-85090000D03*
%TD*%
%TO.P,R6,1*%
%TO.N,/dc_33*%
X73660000Y-85090000D03*
D23*
%TO.P,R6,2*%
%TO.N,Net-(R10-Pad1)*%
X63500000Y-85090000D03*
%TD*%
%TO.P,R7,2*%
%TO.N,Net-(R11-Pad1)*%
X90170000Y-85090000D03*
D22*
%TO.P,R7,1*%
%TO.N,/dc_33*%
X80010000Y-85090000D03*
%TD*%
D23*
%TO.P,R8,2*%
%TO.N,Net-(R12-Pad1)*%
X92710000Y-85090000D03*
D22*
%TO.P,R8,1*%
%TO.N,/dc_33*%
X102870000Y-85090000D03*
%TD*%
%TO.P,R9,1*%
%TO.N,Net-(R5-Pad2)*%
X60960000Y-81280000D03*
D23*
%TO.P,R9,2*%
%TO.N,/sense1*%
X50800000Y-81280000D03*
%TD*%
%TO.P,R10,2*%
%TO.N,/sense2*%
X73660000Y-81280000D03*
D22*
%TO.P,R10,1*%
%TO.N,Net-(R10-Pad1)*%
X63500000Y-81280000D03*
%TD*%
%TO.P,R11,1*%
%TO.N,Net-(R11-Pad1)*%
X90170000Y-81280000D03*
D23*
%TO.P,R11,2*%
%TO.N,/sense3*%
X80010000Y-81280000D03*
%TD*%
%TO.P,R12,2*%
%TO.N,/sense4*%
X102870000Y-81280000D03*
D22*
%TO.P,R12,1*%
%TO.N,Net-(R12-Pad1)*%
X92710000Y-81280000D03*
%TD*%
D23*
%TO.P,U1,4*%
%TO.N,Net-(R5-Pad2)*%
X60960000Y-77470000D03*
%TO.P,U1,2*%
%TO.N,/as_out1*%
X58420000Y-69850000D03*
%TO.P,U1,3*%
%TO.N,/gnd*%
X58420000Y-77470000D03*
D24*
%TO.P,U1,1*%
%TO.N,Net-(R1-Pad2)*%
X60960000Y-69850000D03*
%TD*%
D23*
%TO.P,U2,4*%
%TO.N,Net-(R10-Pad1)*%
X66040000Y-77470000D03*
%TO.P,U2,2*%
%TO.N,/as_out2*%
X63500000Y-69850000D03*
%TO.P,U2,3*%
%TO.N,/gnd*%
X63500000Y-77470000D03*
D24*
%TO.P,U2,1*%
%TO.N,Net-(R2-Pad2)*%
X66040000Y-69850000D03*
%TD*%
%TO.P,U3,1*%
%TO.N,Net-(R3-Pad2)*%
X90170000Y-69850000D03*
D23*
%TO.P,U3,3*%
%TO.N,/gnd*%
X87630000Y-77470000D03*
%TO.P,U3,2*%
%TO.N,/as_out3*%
X87630000Y-69850000D03*
%TO.P,U3,4*%
%TO.N,Net-(R11-Pad1)*%
X90170000Y-77470000D03*
%TD*%
D24*
%TO.P,U4,1*%
%TO.N,Net-(R4-Pad2)*%
X95250000Y-69850000D03*
D23*
%TO.P,U4,3*%
%TO.N,/gnd*%
X92710000Y-77470000D03*
%TO.P,U4,2*%
%TO.N,/as_out4*%
X92710000Y-69850000D03*
%TO.P,U4,4*%
%TO.N,Net-(R12-Pad1)*%
X95250000Y-77470000D03*
%TD*%
D25*
%TO.P,U5,1*%
%TO.N,/gnd*%
X33020000Y-71120000D03*
D26*
%TO.P,U5,2*%
%TO.N,/dc_33*%
X30480000Y-71120000D03*
%TO.P,U5,3*%
%TO.N,/dc_5*%
X27940000Y-71120000D03*
%TD*%
D22*
%TO.P,C5,1*%
%TO.N,/dc_5*%
X30480000Y-67310000D03*
%TO.P,C5,2*%
%TO.N,/gnd*%
X32980000Y-67310000D03*
%TD*%
D15*
%TO.P,C6,1*%
%TO.N,/dc_33*%
X30480000Y-78740000D03*
D16*
%TO.P,C6,2*%
%TO.N,/gnd*%
X31980000Y-78740000D03*
%TD*%
D20*
%TO.P,J18,1*%
%TO.N,/esp_rx*%
X107950000Y-97790000D03*
D21*
%TO.P,J18,2*%
%TO.N,/esp_tx*%
X105410000Y-97790000D03*
%TO.P,J18,3*%
%TO.N,Net-(J18-Pad3)*%
X102870000Y-97790000D03*
%TO.P,J18,4*%
%TO.N,Net-(J18-Pad4)*%
X100330000Y-97790000D03*
%TO.P,J18,5*%
%TO.N,/line4*%
X97790000Y-97790000D03*
%TO.P,J18,6*%
%TO.N,/line3*%
X95250000Y-97790000D03*
%TO.P,J18,7*%
%TO.N,/line2*%
X92710000Y-97790000D03*
%TO.P,J18,8*%
%TO.N,/line1*%
X90170000Y-97790000D03*
%TO.P,J18,9*%
%TO.N,/sense4*%
X87630000Y-97790000D03*
%TO.P,J18,10*%
%TO.N,/sense3*%
X85090000Y-97790000D03*
%TO.P,J18,11*%
%TO.N,/sense2*%
X82550000Y-97790000D03*
%TO.P,J18,12*%
%TO.N,/sense1*%
X80010000Y-97790000D03*
%TD*%
D20*
%TO.P,J19,1*%
%TO.N,/gpio0*%
X38100000Y-91440000D03*
D21*
%TO.P,J19,2*%
%TO.N,/gpio2*%
X35560000Y-91440000D03*
%TO.P,J19,3*%
%TO.N,/gnd*%
X33020000Y-91440000D03*
%TO.P,J19,4*%
%TO.N,/dc_33*%
X30480000Y-91440000D03*
%TO.P,J19,5*%
%TO.N,/dc_5*%
X27940000Y-91440000D03*
%TD*%
D20*
%TO.P,J20,1*%
%TO.N,/gnd*%
X92710000Y-92710000D03*
D21*
%TO.P,J20,2*%
%TO.N,/line1*%
X95250000Y-92710000D03*
%TO.P,J20,3*%
%TO.N,/line2*%
X97790000Y-92710000D03*
%TO.P,J20,4*%
%TO.N,/line3*%
X100330000Y-92710000D03*
%TO.P,J20,5*%
%TO.N,/line4*%
X102870000Y-92710000D03*
%TO.P,J20,6*%
%TO.N,/dc_33*%
X105410000Y-92710000D03*
%TD*%
%TO.P,J13,3*%
%TO.N,/ac_live*%
X33020000Y-35560000D03*
%TO.P,J13,2*%
%TO.N,Net-(J13-Pad2)*%
X35560000Y-35560000D03*
D20*
%TO.P,J13,1*%
%TO.N,/ac_neutral*%
X38100000Y-35560000D03*
%TD*%
%TO.P,J15,1*%
%TO.N,/gnd*%
X33020000Y-62230000D03*
D21*
%TO.P,J15,2*%
%TO.N,Net-(J15-Pad2)*%
X30480000Y-62230000D03*
%TO.P,J15,3*%
%TO.N,/dc_5*%
X27940000Y-62230000D03*
%TD*%
D20*
%TO.P,J10,1*%
%TO.N,/esp_rx*%
X48260000Y-101600000D03*
D21*
%TO.P,J10,2*%
%TO.N,/dc_33*%
X50800000Y-101600000D03*
%TO.P,J10,3*%
%TO.N,/gpio0*%
X48260000Y-104140000D03*
%TO.P,J10,4*%
%TO.N,Net-(J10-Pad4)*%
X50800000Y-104140000D03*
%TO.P,J10,5*%
%TO.N,/gpio2*%
X48260000Y-106680000D03*
%TO.P,J10,6*%
%TO.N,/dc_33*%
X50800000Y-106680000D03*
%TO.P,J10,7*%
%TO.N,/gnd*%
X48260000Y-109220000D03*
%TO.P,J10,8*%
%TO.N,/esp_tx*%
X50800000Y-109220000D03*
%TD*%
D27*
%TO.N,/sense1*%
X50800000Y-76200000D02*
X50800000Y-81280000D01*
D28*
X64770000Y-86995000D02*
X59690000Y-86995000D01*
X53975000Y-81280000D02*
X50800000Y-81280000D01*
X74930000Y-83185000D02*
X68580000Y-83185000D01*
X68580000Y-83185000D02*
X64770000Y-86995000D01*
X75491990Y-83746990D02*
X74930000Y-83185000D01*
X59690000Y-86995000D02*
X53975000Y-81280000D01*
X75491990Y-97081990D02*
X75491990Y-83746990D01*
X76200000Y-97790000D02*
X75491990Y-97081990D01*
X80010000Y-97790000D02*
X76200000Y-97790000D01*
D27*
%TO.N,/gnd*%
X33020000Y-67270000D02*
X32980000Y-67310000D01*
X33020000Y-63500000D02*
X33020000Y-67270000D01*
X32980000Y-71080000D02*
X33020000Y-71120000D01*
X32980000Y-67310000D02*
X32980000Y-71080000D01*
X33020000Y-90170000D02*
X33020000Y-91440000D01*
X31980000Y-78740000D02*
X33020000Y-78740000D01*
X33020000Y-78740000D02*
X33020000Y-90170000D01*
X33020000Y-71120000D02*
X33020000Y-78740000D01*
X48260000Y-109220000D02*
X34290000Y-109220000D01*
X33020000Y-107950000D02*
X33020000Y-91440000D01*
X34290000Y-109220000D02*
X33020000Y-107950000D01*
X58420000Y-77470000D02*
X58420000Y-73660000D01*
X63500000Y-77470000D02*
X63500000Y-73660000D01*
X58420000Y-73660000D02*
X63500000Y-73660000D01*
X82780000Y-73890000D02*
X82550000Y-73660000D01*
X82780000Y-76200000D02*
X82780000Y-73890000D01*
X70890000Y-73890000D02*
X71120000Y-73660000D01*
X70890000Y-76200000D02*
X70890000Y-73890000D01*
X71120000Y-73660000D02*
X82550000Y-73660000D01*
X63500000Y-73660000D02*
X71120000Y-73660000D01*
X87630000Y-77470000D02*
X87630000Y-73660000D01*
X82550000Y-73660000D02*
X87630000Y-73660000D01*
X92710000Y-77470000D02*
X92710000Y-73660000D01*
X87630000Y-73660000D02*
X92710000Y-73660000D01*
X36830000Y-71120000D02*
X33020000Y-71120000D01*
X39370000Y-73660000D02*
X36830000Y-71120000D01*
X49300000Y-73890000D02*
X49530000Y-73660000D01*
X49300000Y-76200000D02*
X49300000Y-73890000D01*
X49530000Y-73660000D02*
X39370000Y-73660000D01*
X58420000Y-73660000D02*
X49530000Y-73660000D01*
X92710000Y-91440000D02*
X93980000Y-90170000D01*
X92710000Y-92710000D02*
X92710000Y-91440000D01*
X92710000Y-73660000D02*
X99060000Y-73660000D01*
X100100000Y-74700000D02*
X100100000Y-76200000D01*
X100100000Y-73890000D02*
X100330000Y-73660000D01*
X100100000Y-76200000D02*
X100100000Y-73890000D01*
X99060000Y-73660000D02*
X100330000Y-73660000D01*
X104775000Y-90170000D02*
X104775000Y-74930000D01*
X104775000Y-74930000D02*
X103505000Y-73660000D01*
X100330000Y-73660000D02*
X103505000Y-73660000D01*
X93980000Y-90170000D02*
X104775000Y-90170000D01*
X105410000Y-112395000D02*
X105410000Y-113030000D01*
X106680000Y-111125000D02*
X105410000Y-112395000D01*
X106680000Y-111125000D02*
X110490000Y-111125000D01*
X110490000Y-111125000D02*
X112395000Y-109220000D01*
X112395000Y-109220000D02*
X112395000Y-92075000D01*
X112395000Y-92075000D02*
X110490000Y-90170000D01*
X110490000Y-90170000D02*
X104775000Y-90170000D01*
X33020000Y-63500000D02*
X33020000Y-62230000D01*
%TO.N,/sense2*%
X72390000Y-76200000D02*
X73660000Y-77470000D01*
X73660000Y-77470000D02*
X73660000Y-81280000D01*
D28*
X75565000Y-81280000D02*
X73660000Y-81280000D01*
X76200000Y-81915000D02*
X75565000Y-81280000D01*
X76200000Y-95250000D02*
X76200000Y-81915000D01*
X76835000Y-95885000D02*
X76200000Y-95250000D01*
X80645000Y-95885000D02*
X76835000Y-95885000D01*
X82550000Y-97790000D02*
X80645000Y-95885000D01*
D27*
%TO.N,/sense3*%
X81280000Y-76200000D02*
X80010000Y-77470000D01*
X80010000Y-77470000D02*
X80010000Y-81280000D01*
D28*
X82476990Y-95176990D02*
X85090000Y-97790000D01*
X78031990Y-95176990D02*
X82476990Y-95176990D01*
X77470000Y-81915000D02*
X77470000Y-94615000D01*
X77470000Y-94615000D02*
X78031990Y-95176990D01*
X78105000Y-81280000D02*
X77470000Y-81915000D01*
X80010000Y-81280000D02*
X78105000Y-81280000D01*
D27*
%TO.N,/sense4*%
X101600000Y-76200000D02*
X102870000Y-77470000D01*
X102870000Y-77470000D02*
X102870000Y-81280000D01*
D28*
X78593980Y-94468980D02*
X84308980Y-94468980D01*
X78178010Y-94053010D02*
X78593980Y-94468980D01*
X78178010Y-83746990D02*
X78178010Y-94053010D01*
X84308980Y-94468980D02*
X87630000Y-97790000D01*
X78740000Y-83185000D02*
X78178010Y-83746990D01*
X85090000Y-83185000D02*
X78740000Y-83185000D01*
X88900000Y-86995000D02*
X85090000Y-83185000D01*
X93980000Y-86995000D02*
X88900000Y-86995000D01*
X99695000Y-81280000D02*
X93980000Y-86995000D01*
X102870000Y-81280000D02*
X99695000Y-81280000D01*
D29*
%TO.N,/ac_in1*%
X44450000Y-30480000D02*
X48260000Y-30480000D01*
D27*
X48260000Y-30480000D02*
X52070000Y-30480000D01*
D29*
X43180000Y-24130000D02*
X43180000Y-25400000D01*
X44450000Y-26670000D02*
X44450000Y-30480000D01*
X43180000Y-25400000D02*
X44450000Y-26670000D01*
%TO.N,Net-(D1-Pad1)*%
X48260000Y-40640000D02*
X48260000Y-43180000D01*
%TO.N,Net-(D2-Pad1)*%
X48260000Y-53340000D02*
X48260000Y-55880000D01*
%TO.N,/as_out1*%
X38100000Y-24130000D02*
X38100000Y-25400000D01*
X40640000Y-27940000D02*
X40640000Y-30480000D01*
X38100000Y-25400000D02*
X40640000Y-27940000D01*
X40640000Y-62230000D02*
X44450000Y-66040000D01*
X40640000Y-43180000D02*
X40640000Y-62230000D01*
X44450000Y-66040000D02*
X48260000Y-66040000D01*
D27*
X52070000Y-69850000D02*
X48260000Y-66040000D01*
X58420000Y-69850000D02*
X52070000Y-69850000D01*
D29*
%TO.N,Net-(D4-Pad1)*%
X67310000Y-40640000D02*
X67310000Y-43180000D01*
%TO.N,/ac_in2*%
X63500000Y-24130000D02*
X63500000Y-30480000D01*
X63500000Y-30480000D02*
X67310000Y-30480000D01*
D27*
X67310000Y-30480000D02*
X71120000Y-30480000D01*
D29*
%TO.N,Net-(D5-Pad1)*%
X67310000Y-53340000D02*
X67310000Y-55880000D01*
%TO.N,/as_out2*%
X58420000Y-24130000D02*
X58420000Y-25400000D01*
X59690000Y-26670000D02*
X59690000Y-30480000D01*
X58420000Y-25400000D02*
X59690000Y-26670000D01*
X63500000Y-66040000D02*
X67310000Y-66040000D01*
X63500000Y-66040000D02*
X59690000Y-62230000D01*
X59690000Y-62230000D02*
X59690000Y-43180000D01*
D27*
X63500000Y-66040000D02*
X63500000Y-69850000D01*
D29*
%TO.N,/ac_in3*%
X83820000Y-24130000D02*
X83820000Y-30480000D01*
X83820000Y-30480000D02*
X87630000Y-30480000D01*
D27*
X87630000Y-30480000D02*
X91440000Y-30480000D01*
D29*
%TO.N,Net-(D7-Pad1)*%
X87630000Y-43180000D02*
X87630000Y-40640000D01*
%TO.N,Net-(D8-Pad1)*%
X87630000Y-55880000D02*
X87630000Y-53340000D01*
%TO.N,/as_out3*%
X78740000Y-24130000D02*
X78740000Y-25400000D01*
X80010000Y-26670000D02*
X80010000Y-30480000D01*
X78740000Y-25400000D02*
X80010000Y-26670000D01*
X80010000Y-62230000D02*
X83820000Y-66040000D01*
X80010000Y-43180000D02*
X80010000Y-62230000D01*
X83820000Y-66040000D02*
X87630000Y-66040000D01*
D27*
X87630000Y-66040000D02*
X87630000Y-69850000D01*
D29*
%TO.N,Net-(D10-Pad1)*%
X107950000Y-40640000D02*
X107950000Y-43180000D01*
%TO.N,/ac_in4*%
X104140000Y-24130000D02*
X104140000Y-30480000D01*
X104140000Y-30480000D02*
X107950000Y-30480000D01*
D27*
X102870000Y-30480000D02*
X100330000Y-33020000D01*
X104140000Y-30480000D02*
X102870000Y-30480000D01*
X111760000Y-48260000D02*
X101600000Y-48260000D01*
X100330000Y-46990000D02*
X100330000Y-41910000D01*
X101600000Y-48260000D02*
X100330000Y-46990000D01*
D29*
%TO.N,Net-(D11-Pad1)*%
X107950000Y-53340000D02*
X107950000Y-55880000D01*
%TO.N,/as_out4*%
X104140000Y-66040000D02*
X107950000Y-66040000D01*
X99060000Y-29210000D02*
X97790000Y-30480000D01*
X99060000Y-24130000D02*
X99060000Y-29210000D01*
X97790000Y-44450000D02*
X97790000Y-59690000D01*
X104001370Y-66178630D02*
X104140000Y-66040000D01*
X104140000Y-66040000D02*
X101600000Y-66040000D01*
X97790000Y-62230000D02*
X97790000Y-59690000D01*
X98425000Y-62865000D02*
X97790000Y-62230000D01*
X101600000Y-66040000D02*
X98425000Y-62865000D01*
D27*
X97790000Y-63638630D02*
X97790000Y-62230000D01*
X92710000Y-68718630D02*
X97790000Y-63638630D01*
X92710000Y-69850000D02*
X92710000Y-68718630D01*
D29*
%TO.N,Net-(D13-Pad2)*%
X44450000Y-40640000D02*
X44450000Y-43180000D01*
%TO.N,Net-(D14-Pad2)*%
X44450000Y-53340000D02*
X44450000Y-55880000D01*
%TO.N,Net-(D16-Pad2)*%
X63500000Y-40640000D02*
X63500000Y-43180000D01*
%TO.N,Net-(D17-Pad2)*%
X63500000Y-53340000D02*
X63500000Y-55880000D01*
%TO.N,Net-(D19-Pad2)*%
X83820000Y-43180000D02*
X83820000Y-40640000D01*
%TO.N,Net-(D20-Pad2)*%
X83820000Y-55880000D02*
X83820000Y-53340000D01*
%TO.N,Net-(D22-Pad2)*%
X104140000Y-40640000D02*
X104140000Y-43180000D01*
%TO.N,Net-(D23-Pad2)*%
X104140000Y-53340000D02*
X104140000Y-55880000D01*
%TO.N,/ac_live*%
X55880000Y-35560000D02*
X74930000Y-35560000D01*
X53340000Y-24130000D02*
X53340000Y-26670000D01*
X55880000Y-29210000D02*
X55880000Y-35560000D01*
X53340000Y-26670000D02*
X55880000Y-29210000D01*
X73660000Y-24130000D02*
X73660000Y-26670000D01*
X74930000Y-27940000D02*
X74930000Y-35560000D01*
X73660000Y-26670000D02*
X74930000Y-27940000D01*
X48260000Y-35560000D02*
X55880000Y-35560000D01*
X44450000Y-35560000D02*
X48260000Y-35560000D01*
X40640000Y-39370000D02*
X44450000Y-35560000D01*
X27940000Y-36830000D02*
X30480000Y-39370000D01*
X27940000Y-31750000D02*
X27940000Y-36830000D01*
X30480000Y-29210000D02*
X27940000Y-31750000D01*
X30480000Y-24130000D02*
X30480000Y-29210000D01*
D27*
X33020000Y-35560000D02*
X33020000Y-39370000D01*
D29*
X33020000Y-39370000D02*
X40640000Y-39370000D01*
X30480000Y-39370000D02*
X33020000Y-39370000D01*
X93980000Y-24130000D02*
X93980000Y-35560000D01*
X74930000Y-35560000D02*
X93980000Y-35560000D01*
X111760000Y-26670000D02*
X114300000Y-24130000D01*
X111760000Y-31750000D02*
X111760000Y-26670000D01*
X109220000Y-34290000D02*
X111760000Y-31750000D01*
X104140000Y-34290000D02*
X109220000Y-34290000D01*
X100330000Y-38100000D02*
X104140000Y-34290000D01*
X96520000Y-38100000D02*
X100330000Y-38100000D01*
X93980000Y-35560000D02*
X96520000Y-38100000D01*
%TO.N,/ac_neutral*%
X25400000Y-24130000D02*
X25400000Y-21590000D01*
X25400000Y-21590000D02*
X26670000Y-20320000D01*
X109220000Y-21590000D02*
X109220000Y-24130000D01*
X107950000Y-20320000D02*
X109220000Y-21590000D01*
X88900000Y-24130000D02*
X88900000Y-20320000D01*
X88900000Y-20320000D02*
X107950000Y-20320000D01*
X68580000Y-24130000D02*
X68580000Y-20320000D01*
X68580000Y-20320000D02*
X88900000Y-20320000D01*
X48260000Y-24130000D02*
X48260000Y-20320000D01*
X48260000Y-20320000D02*
X68580000Y-20320000D01*
D27*
X38100000Y-35560000D02*
X38100000Y-33020000D01*
X34290000Y-29210000D02*
X34290000Y-20320000D01*
D29*
X34290000Y-20320000D02*
X48260000Y-20320000D01*
D27*
X38100000Y-33020000D02*
X34290000Y-29210000D01*
D29*
X26670000Y-20320000D02*
X34290000Y-20320000D01*
D27*
%TO.N,/dc_5*%
X27940000Y-67310000D02*
X30480000Y-67310000D01*
X27940000Y-63500000D02*
X27940000Y-67310000D01*
X27940000Y-67310000D02*
X27940000Y-71120000D01*
X27940000Y-71120000D02*
X27940000Y-91440000D01*
X27940000Y-63500000D02*
X27940000Y-62230000D01*
%TO.N,/dc_33*%
X30480000Y-71120000D02*
X30480000Y-78740000D01*
X30480000Y-78740000D02*
X30480000Y-91440000D01*
X50800000Y-87630000D02*
X50800000Y-85090000D01*
X34290000Y-113030000D02*
X73660000Y-113030000D01*
X30480000Y-109220000D02*
X34290000Y-113030000D01*
X30480000Y-91440000D02*
X30480000Y-109220000D01*
X100330000Y-113030000D02*
X100330000Y-111760000D01*
X50800000Y-106680000D02*
X52070000Y-106680000D01*
X52070000Y-106680000D02*
X53340000Y-105410000D01*
X53340000Y-105410000D02*
X53340000Y-102870000D01*
X53340000Y-102870000D02*
X52070000Y-101600000D01*
X52070000Y-101600000D02*
X50800000Y-101600000D01*
X73660000Y-85090000D02*
X73660000Y-86995000D01*
X50800000Y-88900000D02*
X50800000Y-87630000D01*
X50800000Y-101600000D02*
X50800000Y-88900000D01*
X102870000Y-85090000D02*
X102870000Y-86360000D01*
X80010000Y-85090000D02*
X80010000Y-86995000D01*
X93345000Y-88900000D02*
X93980000Y-88265000D01*
X93980000Y-88265000D02*
X101600000Y-88265000D01*
X102870000Y-86995000D02*
X102870000Y-86360000D01*
X101600000Y-88265000D02*
X102870000Y-86995000D01*
X105410000Y-92710000D02*
X109220000Y-92710000D01*
X68580000Y-88900000D02*
X50800000Y-88900000D01*
X71755000Y-88900000D02*
X68580000Y-88900000D01*
X85090000Y-88900000D02*
X93345000Y-88900000D01*
X81915000Y-88900000D02*
X85090000Y-88900000D01*
X35560000Y-85090000D02*
X39370000Y-88900000D01*
X39370000Y-88900000D02*
X50800000Y-88900000D01*
X81915000Y-88900000D02*
X80010000Y-88900000D01*
X80010000Y-88900000D02*
X80010000Y-92075000D01*
X71755000Y-88900000D02*
X73660000Y-88900000D01*
X73660000Y-88900000D02*
X73660000Y-85090000D01*
X73660000Y-92075000D02*
X73660000Y-88900000D01*
X80010000Y-88900000D02*
X80010000Y-86995000D01*
X100330000Y-111760000D02*
X100330000Y-109855000D01*
X100330000Y-109855000D02*
X76835000Y-109855000D01*
X76835000Y-109855000D02*
X73660000Y-113030000D01*
X109220000Y-92710000D02*
X110490000Y-93980000D01*
X100330000Y-109855000D02*
X109220000Y-109855000D01*
X110490000Y-108585000D02*
X110490000Y-93980000D01*
X109220000Y-109855000D02*
X110490000Y-108585000D01*
%TO.N,/esp_rx*%
X48260000Y-94615000D02*
X48260000Y-101600000D01*
X107950000Y-100330000D02*
X107950000Y-97790000D01*
X106045000Y-102235000D02*
X107950000Y-100330000D01*
X59055000Y-102235000D02*
X106045000Y-102235000D01*
X55880000Y-99060000D02*
X59055000Y-102235000D01*
X55880000Y-94615000D02*
X55880000Y-99060000D01*
%TO.N,/gpio0*%
X48260000Y-104140000D02*
X39370000Y-104140000D01*
X38100000Y-102870000D02*
X38100000Y-91440000D01*
X39370000Y-104140000D02*
X38100000Y-102870000D01*
%TO.N,/gpio2*%
X35560000Y-91440000D02*
X35560000Y-105410000D01*
X36830000Y-106680000D02*
X48260000Y-106680000D01*
X35560000Y-105410000D02*
X36830000Y-106680000D01*
%TO.N,/esp_tx*%
X53975000Y-109220000D02*
X50800000Y-109220000D01*
X55245000Y-101600000D02*
X55245000Y-107950000D01*
X55245000Y-107950000D02*
X53975000Y-109220000D01*
X105410000Y-99060000D02*
X104140000Y-100330000D01*
X105410000Y-97790000D02*
X105410000Y-99060000D01*
X55245000Y-101600000D02*
X52705000Y-99060000D01*
X52705000Y-99060000D02*
X52705000Y-93345000D01*
X52705000Y-93345000D02*
X54610000Y-91440000D01*
X54610000Y-91440000D02*
X57150000Y-91440000D01*
X57150000Y-91440000D02*
X59055000Y-93345000D01*
X59055000Y-93345000D02*
X59055000Y-99060000D01*
X59055000Y-99060000D02*
X60325000Y-100330000D01*
X104140000Y-100330000D02*
X60325000Y-100330000D01*
D28*
%TO.N,/line1*%
X90170000Y-97790000D02*
X95250000Y-92710000D01*
%TO.N,/line2*%
X92710000Y-97790000D02*
X97790000Y-92710000D01*
%TO.N,/line3*%
X95250000Y-97790000D02*
X100330000Y-92710000D01*
%TO.N,/line4*%
X97790000Y-97790000D02*
X102870000Y-92710000D01*
D27*
%TO.N,Net-(R1-Pad2)*%
X52070000Y-40640000D02*
X52070000Y-66040000D01*
X52070000Y-66040000D02*
X53340000Y-67310000D01*
X53340000Y-67310000D02*
X59690000Y-67310000D01*
X60960000Y-68580000D02*
X60960000Y-69850000D01*
X59690000Y-67310000D02*
X60960000Y-68580000D01*
%TO.N,Net-(R2-Pad2)*%
X71120000Y-40640000D02*
X71120000Y-68580000D01*
X69850000Y-69850000D02*
X66040000Y-69850000D01*
X71120000Y-68580000D02*
X69850000Y-69850000D01*
%TO.N,Net-(R3-Pad2)*%
X91440000Y-40640000D02*
X91440000Y-67310000D01*
X90170000Y-68580000D02*
X90170000Y-69850000D01*
X91440000Y-67310000D02*
X90170000Y-68580000D01*
%TO.N,Net-(R4-Pad2)*%
X95250000Y-69850000D02*
X110490000Y-69850000D01*
X111760000Y-68580000D02*
X111760000Y-58420000D01*
X110490000Y-69850000D02*
X111760000Y-68580000D01*
%TO.N,Net-(R5-Pad2)*%
X60960000Y-77470000D02*
X60960000Y-81280000D01*
X60960000Y-81280000D02*
X60960000Y-85090000D01*
%TO.N,Net-(R10-Pad1)*%
X66040000Y-82550000D02*
X63500000Y-85090000D01*
X63500000Y-81280000D02*
X66040000Y-81280000D01*
X66040000Y-81280000D02*
X66040000Y-82550000D01*
X66040000Y-77470000D02*
X66040000Y-81280000D01*
%TO.N,Net-(R11-Pad1)*%
X90170000Y-77470000D02*
X90170000Y-81280000D01*
X90170000Y-81280000D02*
X90170000Y-85090000D01*
%TO.N,Net-(R12-Pad1)*%
X95250000Y-82550000D02*
X92710000Y-85090000D01*
X92710000Y-81280000D02*
X95250000Y-81280000D01*
X95250000Y-81280000D02*
X95250000Y-82550000D01*
X95250000Y-77470000D02*
X95250000Y-81280000D01*
%TD*%
M02*
