<?xml version="1.0" standalone="no"?>
 <!DOCTYPE svg PUBLIC "-//W3C//DTD SVG 1.1//EN" 
 "http://www.w3.org/Graphics/SVG/1.1/DTD/svg11.dtd"> 
<svg xmlns="http://www.w3.org/2000/svg" version="1.1" 
    width="21.0007cm" height="14.8006cm" viewBox="0 0 82680 58270 ">
<title>SVG Picture created as clk2-B.Cu.svg date 2020/12/06 11:08:45 </title>
  <desc>Picture generated by PCBNEW </desc>
<g style="fill:#000000; fill-opacity:1;stroke:#000000; stroke-opacity:1;
stroke-linecap:round; stroke-linejoin:round; "
 transform="translate(0 0) scale(1 1)">
</g>
<g style="fill:#000000; fill-opacity:0.0; 
stroke:#000000; stroke-width:-0.000393701; stroke-opacity:1; 
stroke-linecap:round; stroke-linejoin:round;">
</g>
<g style="fill:#000000; fill-opacity:0.0; 
stroke:#000000; stroke-width:19.685; stroke-opacity:1; 
stroke-linecap:round; stroke-linejoin:round;">
<path d="M41200 8720
L8200 8720
" />
<path d="M41200 21720
L41200 8720
" />
<path d="M8200 21720
L41200 21720
" />
<path d="M8200 8720
L8200 21720
" />
</g>
<g style="fill:#000000; fill-opacity:1.0; 
stroke:#000000; stroke-width:0; stroke-opacity:1; 
stroke-linecap:round; stroke-linejoin:round;">
<circle cx="13200" cy="10720" r="492.126" /> 
</g>
<g style="fill:#000000; fill-opacity:1.0; 
stroke:#000000; stroke-width:39.3701; stroke-opacity:1; 
stroke-linecap:round; stroke-linejoin:round;">
</g>
<g style="fill:#000000; fill-opacity:1.0; 
stroke:#000000; stroke-width:0; stroke-opacity:1; 
stroke-linecap:round; stroke-linejoin:round;">
<circle cx="17200" cy="10720" r="492.126" /> 
</g>
<g style="fill:#000000; fill-opacity:1.0; 
stroke:#000000; stroke-width:39.3701; stroke-opacity:1; 
stroke-linecap:round; stroke-linejoin:round;">
</g>
<g style="fill:#000000; fill-opacity:1.0; 
stroke:#000000; stroke-width:0; stroke-opacity:1; 
stroke-linecap:round; stroke-linejoin:round;">
<circle cx="27200" cy="13720" r="393.701" /> 
</g>
<g style="fill:#000000; fill-opacity:1.0; 
stroke:#000000; stroke-width:39.3701; stroke-opacity:1; 
stroke-linecap:round; stroke-linejoin:round;">
</g>
<g style="fill:#000000; fill-opacity:1.0; 
stroke:#000000; stroke-width:0; stroke-opacity:1; 
stroke-linecap:round; stroke-linejoin:round;">
<circle cx="27200" cy="14720" r="393.701" /> 
</g>
<g style="fill:#000000; fill-opacity:1.0; 
stroke:#000000; stroke-width:39.3701; stroke-opacity:1; 
stroke-linecap:round; stroke-linejoin:round;">
</g>
<g style="fill:#000000; fill-opacity:1.0; 
stroke:#000000; stroke-width:0; stroke-opacity:1; 
stroke-linecap:round; stroke-linejoin:round;">
<circle cx="27200" cy="15720" r="393.701" /> 
</g>
<g style="fill:#000000; fill-opacity:1.0; 
stroke:#000000; stroke-width:39.3701; stroke-opacity:1; 
stroke-linecap:round; stroke-linejoin:round;">
</g>
<g style="fill:#000000; fill-opacity:1.0; 
stroke:#000000; stroke-width:0; stroke-opacity:1; 
stroke-linecap:round; stroke-linejoin:round;">
<circle cx="27200" cy="16720" r="393.701" /> 
</g>
<g style="fill:#000000; fill-opacity:1.0; 
stroke:#000000; stroke-width:39.3701; stroke-opacity:1; 
stroke-linecap:round; stroke-linejoin:round;">
</g>
<g style="fill:#000000; fill-opacity:1.0; 
stroke:#000000; stroke-width:0; stroke-opacity:1; 
stroke-linecap:round; stroke-linejoin:round;">
<circle cx="27200" cy="17720" r="393.701" /> 
</g>
<g style="fill:#000000; fill-opacity:1.0; 
stroke:#000000; stroke-width:39.3701; stroke-opacity:1; 
stroke-linecap:round; stroke-linejoin:round;">
</g>
<g style="fill:#000000; fill-opacity:1.0; 
stroke:#000000; stroke-width:0; stroke-opacity:1; 
stroke-linecap:round; stroke-linejoin:round;">
<polyline style="fill-rule:evenodd;"
points="31806,14113
31806,13326
32593,13326
32593,14113
31806,14113
" /> 
<circle cx="31200" cy="13720" r="393.701" /> 
</g>
<g style="fill:#000000; fill-opacity:1.0; 
stroke:#000000; stroke-width:39.3701; stroke-opacity:1; 
stroke-linecap:round; stroke-linejoin:round;">
</g>
<g style="fill:#000000; fill-opacity:1.0; 
stroke:#000000; stroke-width:0; stroke-opacity:1; 
stroke-linecap:round; stroke-linejoin:round;">
<circle cx="32200" cy="14720" r="393.701" /> 
</g>
<g style="fill:#000000; fill-opacity:1.0; 
stroke:#000000; stroke-width:39.3701; stroke-opacity:1; 
stroke-linecap:round; stroke-linejoin:round;">
</g>
<g style="fill:#000000; fill-opacity:1.0; 
stroke:#000000; stroke-width:0; stroke-opacity:1; 
stroke-linecap:round; stroke-linejoin:round;">
<circle cx="31200" cy="14720" r="393.701" /> 
</g>
<g style="fill:#000000; fill-opacity:1.0; 
stroke:#000000; stroke-width:39.3701; stroke-opacity:1; 
stroke-linecap:round; stroke-linejoin:round;">
</g>
<g style="fill:#000000; fill-opacity:1.0; 
stroke:#000000; stroke-width:0; stroke-opacity:1; 
stroke-linecap:round; stroke-linejoin:round;">
<circle cx="32200" cy="15720" r="393.701" /> 
</g>
<g style="fill:#000000; fill-opacity:1.0; 
stroke:#000000; stroke-width:39.3701; stroke-opacity:1; 
stroke-linecap:round; stroke-linejoin:round;">
</g>
<g style="fill:#000000; fill-opacity:1.0; 
stroke:#000000; stroke-width:0; stroke-opacity:1; 
stroke-linecap:round; stroke-linejoin:round;">
<circle cx="31200" cy="15720" r="393.701" /> 
</g>
<g style="fill:#000000; fill-opacity:1.0; 
stroke:#000000; stroke-width:39.3701; stroke-opacity:1; 
stroke-linecap:round; stroke-linejoin:round;">
</g>
<g style="fill:#000000; fill-opacity:1.0; 
stroke:#000000; stroke-width:0; stroke-opacity:1; 
stroke-linecap:round; stroke-linejoin:round;">
<circle cx="32200" cy="16720" r="393.701" /> 
</g>
<g style="fill:#000000; fill-opacity:1.0; 
stroke:#000000; stroke-width:39.3701; stroke-opacity:1; 
stroke-linecap:round; stroke-linejoin:round;">
</g>
<g style="fill:#000000; fill-opacity:1.0; 
stroke:#000000; stroke-width:0; stroke-opacity:1; 
stroke-linecap:round; stroke-linejoin:round;">
<circle cx="31200" cy="16720" r="393.701" /> 
</g>
<g style="fill:#000000; fill-opacity:1.0; 
stroke:#000000; stroke-width:39.3701; stroke-opacity:1; 
stroke-linecap:round; stroke-linejoin:round;">
</g>
<g style="fill:#000000; fill-opacity:1.0; 
stroke:#000000; stroke-width:0; stroke-opacity:1; 
stroke-linecap:round; stroke-linejoin:round;">
<circle cx="21774.8" cy="12672.8" r="492.126" /> 
</g>
<g style="fill:#000000; fill-opacity:1.0; 
stroke:#000000; stroke-width:39.3701; stroke-opacity:1; 
stroke-linecap:round; stroke-linejoin:round;">
</g>
<g style="fill:#000000; fill-opacity:1.0; 
stroke:#000000; stroke-width:0; stroke-opacity:1; 
stroke-linecap:round; stroke-linejoin:round;">
<circle cx="10200" cy="14720" r="492.126" /> 
</g>
<g style="fill:#000000; fill-opacity:1.0; 
stroke:#000000; stroke-width:39.3701; stroke-opacity:1; 
stroke-linecap:round; stroke-linejoin:round;">
</g>
<g style="fill:#000000; fill-opacity:1.0; 
stroke:#000000; stroke-width:0; stroke-opacity:1; 
stroke-linecap:round; stroke-linejoin:round;">
<circle cx="10200" cy="16688.5" r="492.126" /> 
</g>
<g style="fill:#000000; fill-opacity:1.0; 
stroke:#000000; stroke-width:39.3701; stroke-opacity:1; 
stroke-linecap:round; stroke-linejoin:round;">
</g>
<g style="fill:#000000; fill-opacity:1.0; 
stroke:#000000; stroke-width:0; stroke-opacity:1; 
stroke-linecap:round; stroke-linejoin:round;">
<circle cx="21774.8" cy="18735.7" r="492.126" /> 
</g>
<g style="fill:#000000; fill-opacity:1.0; 
stroke:#000000; stroke-width:39.3701; stroke-opacity:1; 
stroke-linecap:round; stroke-linejoin:round;">
</g>
<g style="fill:#000000; fill-opacity:1.0; 
stroke:#000000; stroke-width:0; stroke-opacity:1; 
stroke-linecap:round; stroke-linejoin:round;">
<circle cx="24200" cy="19220" r="492.126" /> 
</g>
<g style="fill:#000000; fill-opacity:1.0; 
stroke:#000000; stroke-width:39.3701; stroke-opacity:1; 
stroke-linecap:round; stroke-linejoin:round;">
</g>
<g style="fill:#000000; fill-opacity:1.0; 
stroke:#000000; stroke-width:0; stroke-opacity:1; 
stroke-linecap:round; stroke-linejoin:round;">
<circle cx="24200" cy="16220" r="492.126" /> 
</g>
<g style="fill:#000000; fill-opacity:1.0; 
stroke:#000000; stroke-width:39.3701; stroke-opacity:1; 
stroke-linecap:round; stroke-linejoin:round;">
</g>
<g style="fill:#000000; fill-opacity:1.0; 
stroke:#000000; stroke-width:0; stroke-opacity:1; 
stroke-linecap:round; stroke-linejoin:round;">
<circle cx="25200" cy="14720" r="492.126" /> 
</g>
<g style="fill:#000000; fill-opacity:1.0; 
stroke:#000000; stroke-width:39.3701; stroke-opacity:1; 
stroke-linecap:round; stroke-linejoin:round;">
</g>
<g style="fill:#000000; fill-opacity:1.0; 
stroke:#000000; stroke-width:0; stroke-opacity:1; 
stroke-linecap:round; stroke-linejoin:round;">
<circle cx="25200" cy="12220" r="492.126" /> 
</g>
<g style="fill:#000000; fill-opacity:1.0; 
stroke:#000000; stroke-width:39.3701; stroke-opacity:1; 
stroke-linecap:round; stroke-linejoin:round;">
</g>
<g style="fill:#000000; fill-opacity:1.0; 
stroke:#000000; stroke-width:295.276; stroke-opacity:1; 
stroke-linecap:round; stroke-linejoin:round;">
</g>
<g style="fill:#000000; fill-opacity:0.0; 
stroke:#000000; stroke-width:295.276; stroke-opacity:1; 
stroke-linecap:round; stroke-linejoin:round;">
<path d="M31200 16720
L30200 16720
" />
<path d="M30200 16720
L30200 14720
" />
<path d="M30200 14720
L31200 14720
" />
<path d="M30200 16720
L30200 17720
" />
<path d="M27200 17720
L30200 17720
" />
<path d="M30200 17720
L28200 17720
" />
<path d="M21774 18735
L21774 18045
" />
<path d="M22100 17720
L27200 17720
" />
<path d="M21774 18045
L22100 17720
" />
</g>
<g style="fill:#000000; fill-opacity:0.0; 
stroke:#000000; stroke-width:393.701; stroke-opacity:1; 
stroke-linecap:round; stroke-linejoin:round;">
<path d="M10200 14720
L10200 11720
" />
<path d="M11200 10720
L13200 10720
" />
<path d="M10200 11720
L11200 10720
" />
<path d="M17200 10720
L15200 12720
" />
<path d="M15200 12720
L13200 12720
" />
<path d="M13200 12720
L12200 13720
" />
<path d="M12200 13720
L12200 15720
" />
<path d="M12200 15720
L11200 16720
" />
<path d="M11168 16688
L10200 16688
" />
<path d="M11200 16720
L11168 16688
" />
</g>
<g style="fill:#000000; fill-opacity:0.0; 
stroke:#000000; stroke-width:295.276; stroke-opacity:1; 
stroke-linecap:round; stroke-linejoin:round;">
<path d="M33200 15720
L32200 15720
" />
<path d="M24200 19220
L33200 19220
" />
<path d="M33200 15720
L33200 19220
" />
<path d="M24200 13720
L24200 16220
" />
<path d="M27200 13720
L24200 13720
" />
<path d="M27200 14720
L29200 14720
" />
<path d="M29200 14720
L29200 13720
" />
<path d="M29200 13720
L31200 13720
" />
<path d="M27200 15720
L26200 15720
" />
<path d="M26200 15720
L25200 14720
" />
<path d="M32200 14720
L33200 14720
" />
<path d="M25200 12220
L33200 12220
" />
<path d="M33200 12220
L33200 14720
" />
</g>
<g style="fill:#000000; fill-opacity:1.0; 
stroke:#000000; stroke-width:100; stroke-opacity:1; 
stroke-linecap:round; stroke-linejoin:round;">
<polyline style="fill-rule:evenodd;"
points="34150,20670
20250,20670
20250,18662
21032,18662
21032,18808
21061,18952
21117,19087
21198,19208
21301,19312
21423,19393
21558,19449
21701,19477
21847,19477
21991,19449
22126,19393
22247,19312
22351,19208
22432,19087
22488,18952
22516,18808
22516,18662
22488,18519
22432,18384
22351,18262
22247,18159
22232,18149
22264,18117
26691,18117
26700,18130
26789,18219
26895,18290
27012,18338
27136,18363
27263,18363
27387,18338
27504,18290
27610,18219
27699,18130
27708,18117
30180,18117
30200,18119
30277,18111
30352,18089
30421,18052
30482,18002
30532,17941
30569,17872
30591,17797
30597,17739
30599,17720
30597,17700
30597,17117
30691,17117
30700,17130
30789,17219
30895,17290
31012,17338
31136,17363
31263,17363
31387,17338
31504,17290
31610,17219
31699,17130
31700,17130
31700,17130
31789,17219
31895,17290
32012,17338
32136,17363
32263,17363
32387,17338
32504,17290
32610,17219
32699,17130
32770,17024
32802,16947
32802,18822
24826,18822
24776,18746
24673,18643
24551,18562
24416,18506
24273,18477
24126,18477
23983,18506
23848,18562
23726,18643
23623,18746
23542,18868
23486,19003
23457,19146
23457,19293
23486,19436
23542,19571
23623,19693
23726,19796
23848,19877
23983,19933
24126,19962
24273,19962
24416,19933
24551,19877
24673,19796
24776,19693
24826,19617
33180,19617
33200,19619
33277,19611
33352,19589
33421,19552
33482,19502
33532,19441
33569,19372
33591,19297
33597,19239
33599,19220
33597,19200
33597,15739
33599,15720
33591,15642
33569,15567
33532,15498
33482,15437
33421,15387
33352,15350
33277,15328
33219,15322
33219,15322
33200,15320
33180,15322
32708,15322
32699,15309
32610,15220
32610,15220
32610,15219
32699,15130
32708,15117
33180,15117
33200,15119
33277,15111
33352,15089
33421,15052
33482,15002
33532,14941
33569,14872
33591,14797
33597,14739
33597,14739
33599,14720
33597,14700
33597,12239
33599,12220
33591,12142
33569,12067
33532,11998
33482,11937
33421,11887
33352,11850
33277,11828
33219,11822
33219,11822
33200,11820
33180,11822
25826,11822
25776,11746
25673,11643
25551,11562
25416,11506
25273,11477
25126,11477
24983,11506
24848,11562
24726,11643
24623,11746
24542,11868
24486,12003
24457,12146
24457,12293
24486,12436
24542,12571
24623,12693
24726,12796
24848,12877
24983,12933
25126,12962
25273,12962
25416,12933
25551,12877
25673,12796
25776,12693
25826,12617
32802,12617
32802,13188
32787,13166
32753,13132
32712,13104
32666,13085
32618,13076
32312,13076
32250,13138
32250,13670
32257,13670
32257,13770
32250,13770
32250,13777
32150,13777
32150,13770
32142,13770
32142,13670
32150,13670
32150,13138
32087,13076
31781,13076
31733,13085
31687,13104
31646,13132
31612,13166
31587,13204
31504,13149
31387,13101
31263,13076
31136,13076
31012,13101
30895,13149
30789,13220
30700,13309
30691,13322
29219,13322
29200,13320
29180,13322
29180,13322
29122,13328
29047,13350
28978,13387
28917,13437
28867,13498
28830,13567
28808,13642
28800,13720
28802,13739
28802,14322
27708,14322
27699,14309
27610,14220
27610,14220
27610,14219
27699,14130
27770,14024
27818,13907
27843,13783
27843,13656
27818,13532
27770,13415
27699,13309
27610,13220
27504,13149
27387,13101
27263,13076
27136,13076
27012,13101
26895,13149
26789,13220
26700,13309
26691,13322
24219,13322
24200,13320
24180,13322
24122,13328
24047,13350
23978,13387
23917,13437
23867,13498
23830,13567
23808,13642
23800,13720
23802,13739
23802,15593
23726,15643
23623,15746
23542,15868
23486,16003
23457,16146
23457,16293
23486,16436
23542,16571
23623,16693
23726,16796
23848,16877
23983,16933
24126,16962
24273,16962
24416,16933
24551,16877
24673,16796
24724,16744
26553,16744
26570,16870
26612,16990
26648,17058
26752,17096
27129,16720
27270,16720
27647,17096
27751,17058
27806,16944
27838,16821
27846,16695
27829,16569
27787,16449
27751,16381
27647,16343
27270,16720
27129,16720
26752,16343
26648,16381
26593,16495
26561,16618
26553,16744
24724,16744
24776,16693
24857,16571
24913,16436
24942,16293
24942,16146
24913,16003
24857,15868
24776,15746
24673,15643
24597,15593
24597,15154
24623,15193
24726,15296
24848,15377
24983,15433
25126,15462
25273,15462
25362,15444
25905,15987
25917,16002
25978,16052
26047,16089
26122,16111
26180,16117
26180,16117
26199,16119
26219,16117
26691,16117
26700,16130
26789,16219
26832,16248
26823,16272
27200,16649
27576,16272
27567,16248
27610,16219
27699,16130
27770,16024
27818,15907
27843,15783
27843,15656
27818,15532
27770,15415
27699,15309
27610,15220
27610,15220
27610,15219
27699,15130
27708,15117
29180,15117
29200,15119
29219,15117
29219,15117
29277,15111
29352,15089
29421,15052
29482,15002
29532,14941
29569,14872
29591,14797
29599,14720
29597,14700
29597,14117
30691,14117
30700,14130
30789,14219
30789,14220
30789,14220
30700,14309
30691,14322
30219,14322
30200,14320
30180,14322
30180,14322
30122,14328
30047,14350
29978,14387
29917,14437
29867,14498
29830,14567
29808,14642
29800,14720
29802,14739
29802,16700
29800,16720
29802,16739
29802,17322
27708,17322
27699,17309
27610,17220
27567,17191
27576,17167
27200,16790
26823,17167
26832,17191
26789,17220
26700,17309
26691,17322
22119,17322
22099,17320
22080,17322
22080,17322
22022,17328
21947,17350
21878,17387
21817,17437
21805,17452
21507,17750
21492,17762
21479,17777
21479,17777
21442,17823
21405,17892
21382,17967
21375,18045
21377,18064
21377,18108
21301,18159
21198,18262
21117,18384
21061,18519
21032,18662
20250,18662
20250,13189
21328,13189
21377,13304
21508,13369
21649,13407
21795,13418
21940,13399
22079,13353
22171,13304
22221,13189
21774,12743
21328,13189
20250,13189
20250,12693
21029,12693
21047,12838
21094,12977
21143,13069
21257,13119
21704,12672
21845,12672
22291,13119
22406,13069
22471,12938
22509,12797
22520,12652
22501,12506
22455,12368
22406,12275
22291,12226
21845,12672
21704,12672
21257,12226
21143,12275
21078,12406
21039,12547
21029,12693
20250,12693
20250,12155
21328,12155
21774,12602
22221,12155
22171,12041
22040,11976
21899,11937
21754,11927
21609,11945
21470,11992
21377,12041
21328,12155
20250,12155
20250,10770
34150,10770
34150,20670
" /> 
</g>
<g style="fill:#FFFFFF; fill-opacity:1.0; 
stroke:#FFFFFF; stroke-width:100; stroke-opacity:1; 
stroke-linecap:round; stroke-linejoin:round;">
</g>
<g style="fill:#FFFFFF; fill-opacity:1.0; 
stroke:#FFFFFF; stroke-width:0; stroke-opacity:1; 
stroke-linecap:round; stroke-linejoin:round;">
<circle cx="13200" cy="10720" r="68.8976" /> 
</g>
<g style="fill:#FFFFFF; fill-opacity:1.0; 
stroke:#FFFFFF; stroke-width:39.3701; stroke-opacity:1; 
stroke-linecap:round; stroke-linejoin:round;">
</g>
<g style="fill:#FFFFFF; fill-opacity:1.0; 
stroke:#FFFFFF; stroke-width:0; stroke-opacity:1; 
stroke-linecap:round; stroke-linejoin:round;">
<circle cx="17200" cy="10720" r="68.8976" /> 
</g>
<g style="fill:#FFFFFF; fill-opacity:1.0; 
stroke:#FFFFFF; stroke-width:39.3701; stroke-opacity:1; 
stroke-linecap:round; stroke-linejoin:round;">
</g>
<g style="fill:#FFFFFF; fill-opacity:1.0; 
stroke:#FFFFFF; stroke-width:0; stroke-opacity:1; 
stroke-linecap:round; stroke-linejoin:round;">
<circle cx="27200" cy="13720" r="68.8976" /> 
</g>
<g style="fill:#FFFFFF; fill-opacity:1.0; 
stroke:#FFFFFF; stroke-width:39.3701; stroke-opacity:1; 
stroke-linecap:round; stroke-linejoin:round;">
</g>
<g style="fill:#FFFFFF; fill-opacity:1.0; 
stroke:#FFFFFF; stroke-width:0; stroke-opacity:1; 
stroke-linecap:round; stroke-linejoin:round;">
<circle cx="27200" cy="14720" r="68.8976" /> 
</g>
<g style="fill:#FFFFFF; fill-opacity:1.0; 
stroke:#FFFFFF; stroke-width:39.3701; stroke-opacity:1; 
stroke-linecap:round; stroke-linejoin:round;">
</g>
<g style="fill:#FFFFFF; fill-opacity:1.0; 
stroke:#FFFFFF; stroke-width:0; stroke-opacity:1; 
stroke-linecap:round; stroke-linejoin:round;">
<circle cx="27200" cy="15720" r="68.8976" /> 
</g>
<g style="fill:#FFFFFF; fill-opacity:1.0; 
stroke:#FFFFFF; stroke-width:39.3701; stroke-opacity:1; 
stroke-linecap:round; stroke-linejoin:round;">
</g>
<g style="fill:#FFFFFF; fill-opacity:1.0; 
stroke:#FFFFFF; stroke-width:0; stroke-opacity:1; 
stroke-linecap:round; stroke-linejoin:round;">
<circle cx="27200" cy="16720" r="68.8976" /> 
</g>
<g style="fill:#FFFFFF; fill-opacity:1.0; 
stroke:#FFFFFF; stroke-width:39.3701; stroke-opacity:1; 
stroke-linecap:round; stroke-linejoin:round;">
</g>
<g style="fill:#FFFFFF; fill-opacity:1.0; 
stroke:#FFFFFF; stroke-width:0; stroke-opacity:1; 
stroke-linecap:round; stroke-linejoin:round;">
<circle cx="27200" cy="17720" r="68.8976" /> 
</g>
<g style="fill:#FFFFFF; fill-opacity:1.0; 
stroke:#FFFFFF; stroke-width:39.3701; stroke-opacity:1; 
stroke-linecap:round; stroke-linejoin:round;">
</g>
<g style="fill:#FFFFFF; fill-opacity:1.0; 
stroke:#FFFFFF; stroke-width:0; stroke-opacity:1; 
stroke-linecap:round; stroke-linejoin:round;">
<circle cx="32200" cy="13720" r="68.8976" /> 
</g>
<g style="fill:#FFFFFF; fill-opacity:1.0; 
stroke:#FFFFFF; stroke-width:39.3701; stroke-opacity:1; 
stroke-linecap:round; stroke-linejoin:round;">
</g>
<g style="fill:#FFFFFF; fill-opacity:1.0; 
stroke:#FFFFFF; stroke-width:0; stroke-opacity:1; 
stroke-linecap:round; stroke-linejoin:round;">
<circle cx="31200" cy="13720" r="68.8976" /> 
</g>
<g style="fill:#FFFFFF; fill-opacity:1.0; 
stroke:#FFFFFF; stroke-width:39.3701; stroke-opacity:1; 
stroke-linecap:round; stroke-linejoin:round;">
</g>
<g style="fill:#FFFFFF; fill-opacity:1.0; 
stroke:#FFFFFF; stroke-width:0; stroke-opacity:1; 
stroke-linecap:round; stroke-linejoin:round;">
<circle cx="32200" cy="14720" r="68.8976" /> 
</g>
<g style="fill:#FFFFFF; fill-opacity:1.0; 
stroke:#FFFFFF; stroke-width:39.3701; stroke-opacity:1; 
stroke-linecap:round; stroke-linejoin:round;">
</g>
<g style="fill:#FFFFFF; fill-opacity:1.0; 
stroke:#FFFFFF; stroke-width:0; stroke-opacity:1; 
stroke-linecap:round; stroke-linejoin:round;">
<circle cx="31200" cy="14720" r="68.8976" /> 
</g>
<g style="fill:#FFFFFF; fill-opacity:1.0; 
stroke:#FFFFFF; stroke-width:39.3701; stroke-opacity:1; 
stroke-linecap:round; stroke-linejoin:round;">
</g>
<g style="fill:#FFFFFF; fill-opacity:1.0; 
stroke:#FFFFFF; stroke-width:0; stroke-opacity:1; 
stroke-linecap:round; stroke-linejoin:round;">
<circle cx="32200" cy="15720" r="68.8976" /> 
</g>
<g style="fill:#FFFFFF; fill-opacity:1.0; 
stroke:#FFFFFF; stroke-width:39.3701; stroke-opacity:1; 
stroke-linecap:round; stroke-linejoin:round;">
</g>
<g style="fill:#FFFFFF; fill-opacity:1.0; 
stroke:#FFFFFF; stroke-width:0; stroke-opacity:1; 
stroke-linecap:round; stroke-linejoin:round;">
<circle cx="31200" cy="15720" r="68.8976" /> 
</g>
<g style="fill:#FFFFFF; fill-opacity:1.0; 
stroke:#FFFFFF; stroke-width:39.3701; stroke-opacity:1; 
stroke-linecap:round; stroke-linejoin:round;">
</g>
<g style="fill:#FFFFFF; fill-opacity:1.0; 
stroke:#FFFFFF; stroke-width:0; stroke-opacity:1; 
stroke-linecap:round; stroke-linejoin:round;">
<circle cx="32200" cy="16720" r="68.8976" /> 
</g>
<g style="fill:#FFFFFF; fill-opacity:1.0; 
stroke:#FFFFFF; stroke-width:39.3701; stroke-opacity:1; 
stroke-linecap:round; stroke-linejoin:round;">
</g>
<g style="fill:#FFFFFF; fill-opacity:1.0; 
stroke:#FFFFFF; stroke-width:0; stroke-opacity:1; 
stroke-linecap:round; stroke-linejoin:round;">
<circle cx="31200" cy="16720" r="68.8976" /> 
</g>
<g style="fill:#FFFFFF; fill-opacity:1.0; 
stroke:#FFFFFF; stroke-width:39.3701; stroke-opacity:1; 
stroke-linecap:round; stroke-linejoin:round;">
</g>
<g style="fill:#FFFFFF; fill-opacity:1.0; 
stroke:#FFFFFF; stroke-width:0; stroke-opacity:1; 
stroke-linecap:round; stroke-linejoin:round;">
<circle cx="21774.8" cy="12672.8" r="68.8976" /> 
</g>
<g style="fill:#FFFFFF; fill-opacity:1.0; 
stroke:#FFFFFF; stroke-width:39.3701; stroke-opacity:1; 
stroke-linecap:round; stroke-linejoin:round;">
</g>
<g style="fill:#FFFFFF; fill-opacity:1.0; 
stroke:#FFFFFF; stroke-width:0; stroke-opacity:1; 
stroke-linecap:round; stroke-linejoin:round;">
<circle cx="10200" cy="14720" r="68.8976" /> 
</g>
<g style="fill:#FFFFFF; fill-opacity:1.0; 
stroke:#FFFFFF; stroke-width:39.3701; stroke-opacity:1; 
stroke-linecap:round; stroke-linejoin:round;">
</g>
<g style="fill:#FFFFFF; fill-opacity:1.0; 
stroke:#FFFFFF; stroke-width:0; stroke-opacity:1; 
stroke-linecap:round; stroke-linejoin:round;">
<circle cx="10200" cy="16688.5" r="68.8976" /> 
</g>
<g style="fill:#FFFFFF; fill-opacity:1.0; 
stroke:#FFFFFF; stroke-width:39.3701; stroke-opacity:1; 
stroke-linecap:round; stroke-linejoin:round;">
</g>
<g style="fill:#FFFFFF; fill-opacity:1.0; 
stroke:#FFFFFF; stroke-width:0; stroke-opacity:1; 
stroke-linecap:round; stroke-linejoin:round;">
<circle cx="21774.8" cy="18735.7" r="68.8976" /> 
</g>
<g style="fill:#FFFFFF; fill-opacity:1.0; 
stroke:#FFFFFF; stroke-width:39.3701; stroke-opacity:1; 
stroke-linecap:round; stroke-linejoin:round;">
</g>
<g style="fill:#FFFFFF; fill-opacity:1.0; 
stroke:#FFFFFF; stroke-width:0; stroke-opacity:1; 
stroke-linecap:round; stroke-linejoin:round;">
<circle cx="24200" cy="19220" r="68.8976" /> 
</g>
<g style="fill:#FFFFFF; fill-opacity:1.0; 
stroke:#FFFFFF; stroke-width:39.3701; stroke-opacity:1; 
stroke-linecap:round; stroke-linejoin:round;">
</g>
<g style="fill:#FFFFFF; fill-opacity:1.0; 
stroke:#FFFFFF; stroke-width:0; stroke-opacity:1; 
stroke-linecap:round; stroke-linejoin:round;">
<circle cx="24200" cy="16220" r="68.8976" /> 
</g>
<g style="fill:#FFFFFF; fill-opacity:1.0; 
stroke:#FFFFFF; stroke-width:39.3701; stroke-opacity:1; 
stroke-linecap:round; stroke-linejoin:round;">
</g>
<g style="fill:#FFFFFF; fill-opacity:1.0; 
stroke:#FFFFFF; stroke-width:0; stroke-opacity:1; 
stroke-linecap:round; stroke-linejoin:round;">
<circle cx="25200" cy="14720" r="68.8976" /> 
</g>
<g style="fill:#FFFFFF; fill-opacity:1.0; 
stroke:#FFFFFF; stroke-width:39.3701; stroke-opacity:1; 
stroke-linecap:round; stroke-linejoin:round;">
</g>
<g style="fill:#FFFFFF; fill-opacity:1.0; 
stroke:#FFFFFF; stroke-width:0; stroke-opacity:1; 
stroke-linecap:round; stroke-linejoin:round;">
<circle cx="25200" cy="12220" r="68.8976" /> 
</g>
<g style="fill:#FFFFFF; fill-opacity:1.0; 
stroke:#FFFFFF; stroke-width:39.3701; stroke-opacity:1; 
stroke-linecap:round; stroke-linejoin:round;">
</g>
<g style="fill:#000000; fill-opacity:1.0; 
stroke:#000000; stroke-width:39.3701; stroke-opacity:1; 
stroke-linecap:round; stroke-linejoin:round;">
</g> 
</svg>
